<?xml version="1.0" standalone="no"?>
<!DOCTYPE svg PUBLIC "-//W3C//DTD SVG 20010904//EN"
 "http://www.w3.org/TR/2001/REC-SVG-20010904/DTD/svg10.dtd">
<svg version="1.0" xmlns="http://www.w3.org/2000/svg"
 width="160.000000pt" height="120.000000pt" viewBox="0 0 160.000000 120.000000"
 preserveAspectRatio="xMidYMid meet">
<metadata>
Created by potrace 1.16, written by Peter Selinger 2001-2019
</metadata>
<g transform="translate(0.000000,120.000000) scale(0.100000,-0.100000)"
fill="#000000" stroke="none">
<path d="M715 1148 c-377 -11 -420 -28 -69 -28 245 0 485 13 554 29 44 11 -79
11 -485 -1z"/>
<path d="M375 1075 c-16 -103 28 -663 53 -673 8 -3 76 7 151 22 75 14 139 26
143 26 3 0 8 -32 10 -70 3 -67 -3 -88 -16 -54 -3 9 -4 20 0 25 10 17 -5 9 -31
-16 -14 -14 -25 -35 -25 -46 0 -11 -14 -28 -32 -39 -39 -23 -31 -26 17 -6 27
12 35 21 35 40 0 33 15 33 43 2 31 -33 65 -40 112 -21 30 11 33 14 10 9 -16
-3 -38 -7 -47 -9 -16 -4 -18 6 -18 101 0 93 9 128 23 92 4 -9 6 -8 6 3 1 10
17 19 46 26 l44 10 4 -81 3 -81 2 82 2 82 73 21 c118 35 190 60 217 76 17 11
19 13 5 9 -11 -4 -132 -33 -270 -66 -238 -57 -455 -112 -487 -124 -13 -5 -16
21 -21 183 -7 216 -25 459 -36 499 -8 26 -9 24 -16 -22z"/>
<path d="M447 940 c3 -52 8 -180 12 -285 l6 -190 35 3 c76 7 584 121 576 129
-3 3 -467 -89 -571 -113 -19 -5 -20 1 -23 138 -1 79 -11 204 -22 278 -19 134
-19 134 -13 40z"/>
<path d="M1055 265 c50 -26 96 -52 103 -57 8 -7 12 -7 12 1 0 13 26 15 34 2 6
-9 -145 -87 -236 -122 -31 -12 -55 -26 -52 -31 8 -13 -13 -9 -24 5 -6 7 -43
28 -81 47 -39 18 -71 37 -71 41 0 3 12 9 28 12 37 7 204 68 200 73 -2 2 -61
-15 -131 -38 l-126 -41 -66 28 c-36 15 -69 25 -72 21 -15 -14 45 -57 116 -82
42 -15 109 -40 149 -56 l73 -28 72 31 c101 44 237 122 237 136 0 6 -46 29
-102 51 -151 58 -164 59 -63 7z"/>
</g>
</svg>
